<svg width="121" height="132" viewBox="0 0 121 132" fill="none" xmlns="http://www.w3.org/2000/svg">
<rect width="121" height="132" fill="#D10000"/>
<path d="M21.9901 35H99.0106C100.383 35 101.631 35.554 102.534 36.4437C103.439 37.3347 104 38.5662 104 39.9178V92.0815C104 93.1009 103.681 94.0506 103.136 94.8383C103.036 95.093 102.88 95.3303 102.667 95.5319C102.525 95.6638 102.368 95.7719 102.202 95.8536C101.335 96.566 100.221 97 99.0106 97H21.9901C20.6187 97 19.3697 96.4467 18.4649 95.5556C17.5622 94.6653 17 93.4358 17 92.0815V39.9178C17 38.5635 17.5607 37.3333 18.4642 36.4437C19.3676 35.5526 20.6158 35 21.9901 35ZM20.8275 90.0126L47.8198 63.3443L20.8275 41.6552V90.0126ZM50.7928 65.7328L22.9643 93.2272H97.8021L71.2076 65.7369L62.4403 73.099C61.7528 73.6781 60.7234 73.7109 59.9955 73.129L50.7928 65.7328ZM74.1183 63.2934L100.172 90.2255V41.418L74.1183 63.2934ZM23.278 38.7721L61.1716 69.2215L97.4381 38.7721H23.278Z" fill="white"/>
</svg>
