<svg width="123" height="132" viewBox="0 0 123 132" fill="none" xmlns="http://www.w3.org/2000/svg">
<g clip-path="url(#clip0_561_16)">
<path fill-rule="evenodd" clip-rule="evenodd" d="M27.7499 -2.71797e-05H95.1299C102.483 0.0227525 117.68 -5.61145 122.88 5.45979e-05C128.08 5.61156 122.859 22.0126 122.88 29.9485V102.062C122.856 109.996 128.079 126.391 122.88 132C117.681 137.609 102.481 131.977 95.1299 132H27.7499C20.3984 131.977 5.19925 137.609 -2.93255e-05 132C-5.19931 126.391 0.0236752 109.996 -6.8903e-05 102.062V29.9485C0.0210386 22.0126 -5.1996 5.61142 -2.93255e-05 -8.15392e-05C5.19954 -5.61158 20.3967 0.0227525 27.7499 -2.71797e-05Z" fill="#0A66C2"/>
<path fill-rule="evenodd" clip-rule="evenodd" d="M49.19 51.166H64.72V59.7998H64.94C67.11 55.6124 72.39 51.166 80.28 51.166C96.67 51.166 99.7 62.1741 99.7 76.4954V106.778H83.51V79.8626C83.51 73.7002 83.39 65.7679 75.09 65.7679C66.79 65.7679 65.37 72.4699 65.37 79.4201V106.832H49.19V51.166ZM40 34.3085C40 36.1058 39.5062 37.8627 38.581 39.357C37.6558 40.8514 36.3408 42.0161 34.8022 42.7039C33.2637 43.3916 31.5707 43.5716 29.9374 43.221C28.3041 42.8704 26.8038 42.0049 25.6262 40.734C24.4486 39.4632 23.6467 37.844 23.3218 36.0813C22.9969 34.3186 23.1637 32.4915 23.801 30.831C24.4383 29.1706 25.5175 27.7514 26.9021 26.7529C28.2868 25.7544 29.9147 25.2214 31.58 25.2214C33.8123 25.2243 35.9525 26.1826 37.531 27.8861C39.1094 29.5897 39.9974 31.8993 40 34.3085ZM23.18 51.166H40V106.778H23.18V51.166Z" fill="white"/>
</g>
<defs>
<clipPath id="clip0_561_16">
<rect width="122.88" height="132" fill="white"/>
</clipPath>
</defs>
</svg>
