<svg width="121" height="132" viewBox="0 0 121 132" fill="none" xmlns="http://www.w3.org/2000/svg">
<rect width="121" height="132" fill="white"/>
<path d="M107.469 97.2808C102.684 87.7026 97.1788 75.3804 94.8293 69.8838L93.6802 67.4228C92.737 65.4849 91.8795 63.5469 90.962 61.609L87.7721 54.7919C86.1686 51.362 84.6594 47.8634 82.7643 44.562C82.0011 43.2329 81.1094 41.9895 80.2604 40.729C77.6698 37.1934 74.5523 34.0759 71.0166 31.4852C69.2621 30.1875 67.4198 29.0127 65.5029 27.9695L62.536 26.5975C62.0301 26.3746 61.5413 26.1259 61.0354 25.9458L59.4833 25.4142C51.071 22.5195 41.9827 22.2208 33.3984 24.5567C31.245 25.1891 29.1365 25.9655 27.0872 26.8805C26.0754 27.3607 25.0121 27.7894 24.0431 28.3468L21.1619 30.0618C19.2601 31.2695 17.4694 32.6441 15.8111 34.1692C14.9537 34.8981 14.2162 35.7213 13.4187 36.5101C12.6105 37.2912 11.8516 38.1217 11.1464 38.9969C5.24964 46.0123 1.73617 54.7209 1.11369 63.8642C0.779879 68.4293 1.18232 73.0183 2.30561 77.4555C2.85362 79.6666 3.55855 81.8359 4.41504 83.9467C4.86094 84.9929 5.38401 86.0133 5.89851 87.0251C6.361 87.9731 6.8852 88.8898 7.46772 89.7691C4.56844 80.8223 5.21614 71.1038 9.27704 62.6209C11.5924 57.7921 14.9034 53.5079 18.9925 50.05C23.1529 46.5167 28.0035 43.8884 33.2354 42.3325C39.153 40.5372 45.4183 40.2076 51.4915 41.3721C56.2543 42.3959 60.6285 44.751 64.1052 48.1635C68.307 52.2623 70.4764 57.8189 72.9632 62.9981C75.0497 67.3199 77.1306 71.6446 79.2057 75.972C80.4348 78.5331 81.6667 81.1056 82.9015 83.6895C83.0644 84.0411 84.6165 86.5021 84.4193 86.8536C85.2768 88.6544 86.5287 91.2783 87.8921 94.1423C92.3854 103.575 100.446 111.009 111.473 111.489C114.046 111.601 118.633 111.318 121 107.939C116.378 107.554 110.419 103.172 107.469 97.2808Z" fill="#18B7BE"/>
<path d="M97.882 57.896C103.113 46.6 108.423 35.3468 113.814 24.1365H93.9032C91.2364 30.0189 88.5267 35.8841 85.817 41.758L95.6696 62.6551L97.882 57.896Z" fill="#072A40"/>
<path d="M72.3029 70.707C68.9244 82.4204 58.1714 92.7017 46.6895 92.5474C33.6299 92.3673 23.0313 80.8597 23.0313 66.4452C22.9971 62.6364 23.7652 58.863 25.2854 55.3705C26.8056 51.878 29.044 48.7446 31.8549 46.1741C24.9433 49.556 19.3812 55.1796 16.0757 62.1281C12.7702 69.0766 11.9162 76.9399 13.6529 84.436C15.3897 91.9321 19.6147 98.6187 25.6392 103.406C31.6636 108.192 39.1321 110.797 46.8267 110.795C52.2284 110.701 57.5593 109.55 62.5189 107.408C67.4915 105.28 72.0293 102.254 75.9044 98.4812L77.002 97.4094C78.0224 96.226 79.1028 95.077 80.0632 93.8422C80.4491 93.3363 80.8264 92.8218 81.1608 92.2815L82.0783 90.9353L72.3029 70.707Z" fill="#072A40"/>
</svg>
